<?xml version="1.0" encoding="UTF-8"?>
<svg version="1.1" xmlns="http://www.w3.org/2000/svg" width="530" height="530">
<path d="M0 0 C0.93537598 0.17160645 1.87075195 0.34321289 2.83447266 0.52001953 C25.15835721 4.7205285 46.41259608 11.41146215 67 21 C67.72268066 21.33644531 68.44536133 21.67289063 69.18994141 22.01953125 C92.26073063 32.89676646 113.03756056 46.96584895 132 64 C132.54994629 64.48823242 133.09989258 64.97646484 133.66650391 65.47949219 C147.4574011 77.7461536 159.04749078 91.15832861 170 106 C170.64453125 106.85851562 171.2890625 107.71703125 171.953125 108.6015625 C212.03127844 163.66038495 227.7152215 235.71446006 217.5390625 302.73779297 C209.25691038 352.85831679 187.70556185 402.43826723 152.36328125 439.51953125 C150.39756724 441.58271868 148.56580589 443.68224201 146.75 445.875 C137.15158241 456.8937085 125.67126656 466.27817502 114 475 C113.45053711 475.41701172 112.90107422 475.83402344 112.33496094 476.26367188 C102.4233661 483.76022915 91.88995051 490.03191653 81 496 C80.33806641 496.36335449 79.67613281 496.72670898 78.99414062 497.10107422 C40.81603303 517.76274955 -1.91800056 527.4868065 -45.125 527.3125 C-46.53815491 527.30976578 -46.53815491 527.30976578 -47.9798584 527.30697632 C-62.51149768 527.25974372 -76.68193943 526.66295648 -91 524 C-91.8981543 523.8443457 -92.79630859 523.68869141 -93.72167969 523.52832031 C-154.87288607 512.72932334 -213.7095065 478.0851539 -252 429 C-252.78890625 428.01644531 -253.5778125 427.03289062 -254.390625 426.01953125 C-284.50082992 388.16125302 -303.04951015 341.89732528 -309 294 C-309.09571289 293.24452881 -309.19142578 292.48905762 -309.29003906 291.71069336 C-310.33446861 282.11335915 -310.24375313 272.45481067 -310.25 262.8125 C-310.25067474 261.87659027 -310.25134949 260.94068054 -310.25204468 259.97640991 C-310.23543823 245.45911504 -309.69420605 231.3022215 -307 217 C-306.82307617 216.04722168 -306.64615234 215.09444336 -306.46386719 214.11279297 C-294.65657468 152.29274592 -262.01975387 94.01955904 -212 55 C-211.01644531 54.21109375 -210.03289062 53.4221875 -209.01953125 52.609375 C-174.99162585 25.55194362 -133.78841119 7.41542971 -91 0 C-90.13536133 -0.16081055 -89.27072266 -0.32162109 -88.37988281 -0.48730469 C-60.16894147 -5.5831358 -28.14751562 -5.31427583 0 0 Z " fill="#E03722" transform="translate(310,3)"/>
<path d="M0 0 C2.14377793 0.33676802 4.29100636 0.63940887 6.43994141 0.94140625 C36.256881 5.30595184 65.55055329 18.48603556 89.01416016 37.31640625 C89.8683252 37.99920654 89.8683252 37.99920654 90.73974609 38.69580078 C126.65215227 67.66239774 152.55777489 110.45617724 158.32666016 156.62890625 C163.74730277 207.54296814 151.49579627 256.11622912 119.95166016 296.69140625 C115.19369877 302.43069717 110.11900804 307.88670441 105.01416016 313.31640625 C104.43150391 313.95320313 103.84884766 314.59 103.24853516 315.24609375 C97.48809078 321.32656281 90.71157495 326.32452247 84.01416016 331.31640625 C83.4526123 331.73825195 82.89106445 332.16009766 82.3125 332.59472656 C70.52812018 341.31440578 57.33388476 347.31991474 44.01416016 353.31640625 C43.33579102 353.62481445 42.65742188 353.93322266 41.95849609 354.25097656 C31.82750116 358.778828 20.84101332 361.07756273 10.01416016 363.31640625 C8.72566162 363.60221558 8.72566162 363.60221558 7.41113281 363.89379883 C-1.59883712 365.67624393 -10.58878461 365.65406271 -19.73681641 365.63208008 C-22.45305484 365.6289441 -25.16817461 365.65236635 -27.88427734 365.67773438 C-43.61506159 365.73548132 -59.29891488 364.243795 -74.42333984 359.69140625 C-75.27694092 359.43979736 -76.13054199 359.18818848 -77.01000977 358.92895508 C-98.51949185 352.32925383 -118.12501579 341.89621404 -135.98583984 328.31640625 C-136.88302734 327.64480469 -137.78021484 326.97320312 -138.70458984 326.28125 C-176.99650291 296.35127578 -200.57994882 251.48085163 -206.97485352 203.63867188 C-210.6655145 172.56668976 -206.33213414 140.11251131 -193.98583984 111.31640625 C-193.69338379 110.63126953 -193.40092773 109.94613281 -193.09960938 109.24023438 C-184.34646249 89.0556352 -172.13098162 71.25360774 -156.98583984 55.31640625 C-156.50775879 54.81109375 -156.02967773 54.30578125 -155.53710938 53.78515625 C-143.39845691 41.03746442 -130.1362115 31.22794981 -114.98583984 22.31640625 C-114.38046387 21.95804688 -113.77508789 21.5996875 -113.15136719 21.23046875 C-79.75790147 1.72421153 -38.20194529 -6.06776311 0 0 Z " fill="#FEFEFE" transform="translate(288.98583984375,82.68359375)"/>
<path d="M0 0 C0.93537598 0.17160645 1.87075195 0.34321289 2.83447266 0.52001953 C25.15835721 4.7205285 46.41259608 11.41146215 67 21 C67.72268066 21.33644531 68.44536133 21.67289063 69.18994141 22.01953125 C92.26073063 32.89676646 113.03756056 46.96584895 132 64 C132.54994629 64.48823242 133.09989258 64.97646484 133.66650391 65.47949219 C147.4574011 77.7461536 159.04749078 91.15832861 170 106 C170.64453125 106.85851562 171.2890625 107.71703125 171.953125 108.6015625 C212.03127844 163.66038495 227.7152215 235.71446006 217.5390625 302.73779297 C209.25691038 352.85831679 187.70556185 402.43826723 152.36328125 439.51953125 C150.39756724 441.58271868 148.56580589 443.68224201 146.75 445.875 C137.15158241 456.8937085 125.67126656 466.27817502 114 475 C113.45053711 475.41701172 112.90107422 475.83402344 112.33496094 476.26367188 C102.4233661 483.76022915 91.88995051 490.03191653 81 496 C80.33806641 496.36335449 79.67613281 496.72670898 78.99414062 497.10107422 C40.81603303 517.76274955 -1.91800056 527.4868065 -45.125 527.3125 C-46.53815491 527.30976578 -46.53815491 527.30976578 -47.9798584 527.30697632 C-62.51149768 527.25974372 -76.68193943 526.66295648 -91 524 C-91.8981543 523.8443457 -92.79630859 523.68869141 -93.72167969 523.52832031 C-154.87288607 512.72932334 -213.7095065 478.0851539 -252 429 C-252.78890625 428.01644531 -253.5778125 427.03289062 -254.390625 426.01953125 C-284.50082992 388.16125302 -303.04951015 341.89732528 -309 294 C-309.09571289 293.24452881 -309.19142578 292.48905762 -309.29003906 291.71069336 C-310.33446861 282.11335915 -310.24375313 272.45481067 -310.25 262.8125 C-310.25067474 261.87659027 -310.25134949 260.94068054 -310.25204468 259.97640991 C-310.23543823 245.45911504 -309.69420605 231.3022215 -307 217 C-306.82307617 216.04722168 -306.64615234 215.09444336 -306.46386719 214.11279297 C-294.65657468 152.29274592 -262.01975387 94.01955904 -212 55 C-211.01644531 54.21109375 -210.03289062 53.4221875 -209.01953125 52.609375 C-174.99162585 25.55194362 -133.78841119 7.41542971 -91 0 C-90.13536133 -0.16081055 -89.27072266 -0.32162109 -88.37988281 -0.48730469 C-60.16894147 -5.5831358 -28.14751562 -5.31427583 0 0 Z M-116 9 C-116.69947754 9.19174805 -117.39895508 9.38349609 -118.11962891 9.58105469 C-135.47966637 14.44538156 -152.10311492 21.54771547 -168 30 C-169.07048584 30.56025879 -169.07048584 30.56025879 -170.16259766 31.13183594 C-201.79213964 47.75274162 -231.49379586 72.40730239 -252.72167969 101.27294922 C-254.03375446 103.04560333 -255.37693348 104.79096879 -256.7265625 106.53515625 C-297.27503005 159.54029588 -312.8433535 228.28420309 -306 294 C-305.27698017 299.01262739 -304.36470388 303.97118815 -303.375 308.9375 C-303.24372711 309.60264618 -303.11245422 310.26779236 -302.97720337 310.95309448 C-294.50940247 353.59132799 -276.81617693 391.85449559 -250 426 C-249.37569092 426.80219971 -249.37569092 426.80219971 -248.73876953 427.62060547 C-236.43585421 443.27750014 -221.80995074 458.1099842 -205.66259766 469.78613281 C-203.91106217 471.06493376 -202.19540102 472.38352074 -200.48046875 473.7109375 C-147.89141854 513.98755603 -79.09138027 530.3166497 -13.77880859 522.86865234 C53.28340072 513.96050708 118.39366166 480.28956084 160 426 C160.50080078 425.3591748 161.00160156 424.71834961 161.51757812 424.05810547 C190.93999653 386.27270332 207.99227847 343.17072554 215 296 C215.11859375 295.22382324 215.2371875 294.44764648 215.359375 293.64794922 C217.36237291 280.130694 217.2867431 266.63723073 217 253 C216.97897217 251.73736328 216.97897217 251.73736328 216.95751953 250.44921875 C216.53290867 229.33248889 212.79828179 208.58865431 206.71728516 188.39697266 C206.06980505 186.23326957 205.45657428 184.06365213 204.85546875 181.88671875 C195.96023463 151.11486646 179.45296728 121.54935068 159 97 C158.5472168 96.44570312 158.09443359 95.89140625 157.62792969 95.3203125 C146.14210432 81.26859097 133.42242707 68.05150477 119 57 C117.56914063 55.84371094 117.56914063 55.84371094 116.109375 54.6640625 C93.81507802 36.90704707 68.00392406 23.03270601 41 14 C39.60418701 13.53255371 39.60418701 13.53255371 38.18017578 13.05566406 C24.95597156 8.69740887 11.73483093 5.27335133 -2 3 C-2.83853516 2.85046875 -3.67707031 2.7009375 -4.54101562 2.546875 C-41.39387001 -3.87676303 -80.08945804 -0.89097386 -116 9 Z " fill="#62594A" transform="translate(310,3)"/>
<path d="M0 0 C0.73686035 0.13889648 1.4737207 0.27779297 2.23291016 0.42089844 C47.77982083 9.13769215 89.65779494 40.38813008 115.76171875 78.0703125 C136.51726937 109.06310281 147.64939118 144.62609567 147.39111328 181.87109375 C147.37496661 184.63070749 147.39110788 187.38886629 147.41015625 190.1484375 C147.42352722 201.42148492 146.39188557 211.98804623 144 223 C143.81727539 223.89025879 143.63455078 224.78051758 143.44628906 225.69775391 C133.45898509 272.15998852 103.63925014 314.89587699 64 341 C20.34957275 368.7992859 -31.3394233 378.98129955 -82.125 367.75 C-104.93284551 362.38090297 -128.24373076 353.24916573 -147 339 C-148.08050824 338.20152386 -149.16125006 337.40336376 -150.2421875 336.60546875 C-157.16318164 331.43874047 -163.73715682 325.95158742 -170 320 C-170.5053125 319.52191895 -171.010625 319.04383789 -171.53125 318.55126953 C-192.84730491 298.25361989 -209.63774535 272.25495191 -218.36474609 244.05175781 C-219.00865735 241.9720383 -219.68484268 239.90461905 -220.36328125 237.8359375 C-223.46810355 228.11050503 -225.31475596 218.37649299 -226.69042969 208.26904297 C-226.94615548 206.39466161 -227.23094628 204.5242705 -227.5234375 202.65527344 C-228.31559197 196.57938368 -228.24462222 190.49400277 -228.25 184.375 C-228.25067474 183.68603638 -228.25134949 182.99707275 -228.25204468 182.28723145 C-228.17362351 131.69605005 -206.96765697 85.19660969 -171.6875 49.375 C-126.53485944 4.45124115 -61.78814934 -12.46851137 0 0 Z M-111 14 C-112.02770508 14.43868408 -112.02770508 14.43868408 -113.07617188 14.88623047 C-133.26077105 23.63937736 -151.06279851 35.85485822 -167 51 C-167.5053125 51.47808105 -168.010625 51.95616211 -168.53125 52.44873047 C-181.27894183 64.58738293 -191.08845644 77.84962834 -200 93 C-200.35835937 93.60537598 -200.71671875 94.21075195 -201.0859375 94.83447266 C-222.73724405 131.90012575 -227.88020722 175.19469301 -221 217 C-220.86609863 217.83273437 -220.73219727 218.66546875 -220.59423828 219.5234375 C-215.984528 247.14817404 -202.98355389 273.87964342 -186 296 C-185.36964844 296.83660156 -184.73929688 297.67320312 -184.08984375 298.53515625 C-169.37586828 317.33162202 -151.47221389 331.95811549 -131 344 C-130.39462402 344.35835938 -129.78924805 344.71671875 -129.16552734 345.0859375 C-101.78793392 361.07811944 -71.17228133 367.44839368 -39.75 367.4375 C-38.82580261 367.43823517 -37.90160522 367.43897034 -36.94940186 367.43972778 C-21.4750935 367.40748616 -6.96539321 366.24580733 8 362 C8.86028809 361.75894531 9.72057617 361.51789063 10.60693359 361.26953125 C29.57177973 355.73491489 49.22946062 346.96955609 65 335 C66.04671875 334.23300781 67.0934375 333.46601563 68.171875 332.67578125 C75.91051491 326.93387902 83.02243446 320.63644011 90 314 C90.63292969 313.41992188 91.26585937 312.83984375 91.91796875 312.2421875 C116.77421046 288.74388773 132.38254724 254.80744205 140 222 C140.31904297 220.67355469 140.31904297 220.67355469 140.64453125 219.3203125 C150.60380617 174.46775061 139.83099984 124.18172864 115.57714844 85.74511719 C102.68168225 66.12158169 86.91672888 48.92674144 68 35 C67.44425293 34.58395508 66.88850586 34.16791016 66.31591797 33.73925781 C54.52522728 25.01130891 41.32919933 19.000757 28 13 C26.98244629 12.5373877 26.98244629 12.5373877 25.94433594 12.06542969 C12.40032102 6.01219525 -3.32808736 2.86103907 -18 1 C-18.87398437 0.88914062 -19.74796875 0.77828125 -20.6484375 0.6640625 C-51.07031369 -2.48890506 -82.86124851 1.93554523 -111 14 Z " fill="#655E50" transform="translate(305,81)"/>
<path d="M0 0 C0.99 0.495 0.99 0.495 2 1 C2.79890173 3.43261088 3.50836788 5.84668049 4.1875 8.3125 C7.8104492 20.54524927 13.19457555 30.894219 24.51953125 37.4609375 C26.98758416 38.74121682 29.43528312 39.92667805 32 41 C32.87140625 41.36996094 33.7428125 41.73992187 34.640625 42.12109375 C39.32843113 43.34755466 43.79967445 43.29777146 48.625 43.25 C49.61193848 43.24250732 50.59887695 43.23501465 51.61572266 43.22729492 C62.66726695 43.06426324 72.32400957 41.14155851 82.74755859 37.58911133 C84.48191512 37.00778309 86.23984916 36.49779922 88 36 C88.66 36.33 89.32 36.66 90 37 C88.71416016 38.16015625 88.71416016 38.16015625 87.40234375 39.34375 C83.89797407 42.52366948 80.43868798 45.74926515 77 49 C76.29359375 49.66515625 75.5871875 50.3303125 74.859375 51.015625 C65.54876009 60.67430028 60.64821602 73.88546816 60.54467773 87.08447266 C60.81076461 99.6527753 67.06766291 109.82809618 74 120 C75.01052185 121.66030821 76.01361854 123.32523751 77 125 C70.90786683 123.1422853 65.29881928 120.88491061 59.6875 117.875 C58.95402344 117.48320557 58.22054687 117.09141113 57.46484375 116.68774414 C50.80225116 113.04122684 44.87103725 108.83291922 39 104 C38.22527344 103.38898438 37.45054687 102.77796875 36.65234375 102.1484375 C14.26156846 83.58818285 3.4822116 55.45009903 0.27978516 27.28417969 C-0.49328012 18.20976951 -0.3195441 9.0934878 0 0 Z " fill="#4B4F43" transform="translate(264,184)"/>
<path d="M0 0 C0.33 0 0.66 0 1 0 C1.47833254 11.02822254 0.88313332 21.5818139 -0.8125 32.5 C-0.97782227 33.57233887 -1.14314453 34.64467773 -1.31347656 35.74951172 C-6.31524108 66.19810645 -19.72603884 93.42239377 -44.9609375 111.86328125 C-53.64928722 117.97192816 -64.05832307 125 -75 125 C-73.03571228 119.76189941 -70.45641802 114.86006726 -67.921875 109.8828125 C-62.2226252 98.61190804 -59.60596744 86.31882769 -62.8359375 73.74609375 C-67.48980136 61.76786026 -75.36346393 53.21587445 -85 45 C-86.01205347 44.01220054 -87.01763828 43.01733252 -88 42 C-84.70588411 42.61378104 -81.55947216 43.39575749 -78.3671875 44.41015625 C-61.97206266 49.41297543 -45.19484957 52.59945481 -29 45 C-11.68765339 35.58004669 -5.59045436 17.70310548 0 0 Z " fill="#4B4F43" transform="translate(258,183)"/>
<path d="M0 0 C40.34592792 3.86201835 74.87643289 22.13658928 104.59130859 49.24804688 C103.60130859 49.74304688 103.60130859 49.74304688 102.59130859 50.24804688 C99.98974609 48.81445313 99.98974609 48.81445313 96.96630859 46.81054688 C95.96341797 46.15183594 94.96052734 45.493125 93.92724609 44.81445312 C93.15638672 44.29753906 92.38552734 43.780625 91.59130859 43.24804688 C92.14560547 43.64636719 92.69990234 44.0446875 93.27099609 44.45507812 C93.99544922 44.98488281 94.71990234 45.5146875 95.46630859 46.06054688 C96.18560547 46.58261719 96.90490234 47.1046875 97.64599609 47.64257812 C99.59130859 49.24804688 99.59130859 49.24804688 101.59130859 52.24804688 C97.20857283 50.90960661 93.37513908 49.1611154 89.34130859 46.99804688 C83.97710625 44.23850781 78.55654167 41.98909231 72.84130859 40.06054688 C72.1887207 39.8352832 71.53613281 39.61001953 70.86376953 39.37792969 C56.19142761 34.6071682 41.92305289 32.50399976 26.52880859 32.62304688 C25.67855103 32.6230368 24.82829346 32.62302673 23.95227051 32.62301636 C7.33773153 32.65879521 -8.40388399 35.06570979 -24.56005859 38.81079102 C-27.28543127 39.22912685 -28.84391797 39.16420383 -31.40869141 38.24804688 C-29.90912394 35.79503209 -28.386392 33.36286734 -26.84619141 30.93554688 C-26.42789063 30.24525391 -26.00958984 29.55496094 -25.57861328 28.84375 C-22.50433612 24.05897276 -20.0704389 21.84023373 -14.40869141 20.24804688 C17.24857134 15.19325364 47.68098745 21.43680652 76.59130859 34.24804688 C51.82191515 22.56937538 27.45647024 14.31486721 -0.15869141 13.62304688 C-1.44001953 13.584375 -2.72134766 13.54570312 -4.04150391 13.50585938 C-7.16376611 13.41265752 -10.28603833 13.32684998 -13.40869141 13.24804688 C-12.64800038 9.98327113 -11.61722949 7.40256161 -9.90869141 4.49804688 C-9.46525391 3.69882812 -9.02181641 2.89960938 -8.56494141 2.07617188 C-5.64623834 -0.39838072 -3.73186072 -0.18488813 0 0 Z " fill="#505348" transform="translate(151.40869140625,328.751953125)"/>
<path d="M0 0 C4.43744168 2.01152512 7.25462047 5.09899869 10.15625 8.95703125 C10.56101563 9.4159375 10.96578125 9.87484375 11.3828125 10.34765625 C12.0428125 10.34765625 12.7028125 10.34765625 13.3828125 10.34765625 C14.0428125 8.36765625 14.7028125 6.38765625 15.3828125 4.34765625 C17.38235996 4.30511269 19.38322886 4.30684842 21.3828125 4.34765625 C21.8778125 4.84265625 21.8778125 4.84265625 22.3828125 5.34765625 C21.78648222 12.74215166 21.78648222 12.74215166 19.3828125 16.34765625 C15.7578125 17.03515625 15.7578125 17.03515625 12.3828125 17.34765625 C12.3415625 18.52328125 12.3003125 19.69890625 12.2578125 20.91015625 C11.62381898 25.94638646 9.24825404 29.14671409 5.3828125 32.34765625 C-1.13487694 36.25095694 -7.2065169 36.21182686 -14.6171875 35.34765625 C-21.22619754 33.30471259 -25.77038805 30.05581028 -29.6171875 24.34765625 C-31.42494231 18.92439182 -31.12044579 13.96338023 -29.4296875 8.53515625 C-23.41837802 -2.03645697 -10.84270173 -2.70258386 0 0 Z " fill="#FEFAF9" transform="translate(54.6171875,209.65234375)"/>
<path d="M0 0 C2.11942335 0.00315499 4.23743769 -0.02038129 6.35668945 -0.0456543 C29.6877656 -0.15891687 29.6877656 -0.15891687 36.10498047 5.23754883 C38.28650978 7.88160088 40.18596596 10.63938274 42.06958008 13.50317383 C42.77598633 14.56922852 43.48239258 15.6352832 44.21020508 16.73364258 C45.81958008 19.31567383 45.81958008 19.31567383 45.81958008 20.31567383 C44.31892354 20.19881943 42.81906978 20.07165335 41.31958008 19.94067383 C40.48426758 19.87106445 39.64895508 19.80145508 38.78833008 19.72973633 C35.75861388 19.30717065 32.86070044 18.60412005 29.90063477 17.84155273 C-8.37639734 8.16901318 -50.57314053 13.28856884 -84.69042969 32.96533203 C-86.15777058 33.8024113 -87.66605187 34.56702145 -89.18041992 35.31567383 C-89.84041992 34.98567383 -90.50041992 34.65567383 -91.18041992 34.31567383 C-64.75972726 13.936573 -33.73854307 -0.10452561 0 0 Z " fill="#4F5347" transform="translate(364.180419921875,347.684326171875)"/>
<path d="M0 0 C4.69857096 2.65609515 8.02964018 5.90785981 9.65625 11.12109375 C10.55186481 16.34124865 10.28404282 20.71232885 7.65625 25.37109375 C3.25277573 31.52849422 -3.14809304 35.88795883 -10.34375 38.12109375 C-16.59627367 39.04511203 -21.46143481 38.47506444 -26.6484375 34.7265625 C-31.04434521 30.56361764 -32.55652896 25.96490593 -32.84375 19.99609375 C-32.51731942 13.31446778 -29.26087903 9.84179168 -24.53125 5.43359375 C-17.43588197 -0.46182233 -9.01029614 -3.37886105 0 0 Z " fill="#FEF9F7" transform="translate(476.34375,148.87890625)"/>
<path d="M0 0 C4.31534596 3.36596985 7.53855839 6.28409031 8.5703125 11.83203125 C8.91304483 19.26932278 6.32166608 24.06404851 2.375 30.125 C-2.76315849 35.40588512 -8.67278862 38.5310501 -16.0625 38.875 C-21.32857324 38.81920055 -24.33252165 37.66216856 -28.28125 34.20703125 C-32.13510841 29.92811492 -33.49058421 25.19702819 -33.21484375 19.47265625 C-31.92151194 11.72753125 -26.66022774 6.36230248 -20.875 1.4375 C-14.97337932 -2.75920804 -6.52714469 -3.31356142 0 0 Z " fill="#FEFAF8" transform="translate(438.875,93.5625)"/>
<path d="M0 0 C5.1614241 2.10758151 8.9559877 5.32526683 12 10 C12.37125 10.54011719 12.7425 11.08023438 13.125 11.63671875 C16.79800162 17.72012768 16.89506198 24.06552989 16 31 C13.86526742 35.50665768 11.08177871 38.1741532 7 41 C1.5431837 42.81893877 -3.95156181 42.96397091 -9.1875 40.5 C-15.60569299 34.79493957 -21.35081349 29.01309001 -22.3125 20.10546875 C-22.49924401 15.37267515 -22.41354486 11.9097987 -20.4375 7.5625 C-14.19982714 1.00494648 -9.33596792 -1.67671838 0 0 Z " fill="#FEFAF9" transform="translate(166,46)"/>
<path d="M0 0 C5.13722479 1.81313816 7.59980377 4.10729231 10 9 C10 11.64 10 14.28 10 17 C15.61 19.31 21.22 21.62 27 24 C24.97536415 28.04927171 23.76554653 29.63558707 20 32 C15.93471303 31.58089825 12.42114505 30.03763359 8.6875 28.4375 C7.61886719 27.98246094 6.55023438 27.52742188 5.44921875 27.05859375 C4.64097656 26.70925781 3.83273438 26.35992187 3 26 C2.01 26.99 1.02 27.98 0 29 C1.44424635 32.23861303 3.25772247 34.61969163 5.625 37.25 C6.25664063 37.95640625 6.88828125 38.6628125 7.5390625 39.390625 C8.02117187 39.92171875 8.50328125 40.4528125 9 41 C7.50902342 44.7952131 5.24299151 46.61042731 2 49 C-7.55486779 39.61815799 -7.55486779 39.61815799 -11.375 35.125 C-16.23973706 29.42798262 -21.66748002 24.25371426 -27 19 C-10.96964471 -0.92963091 -10.96964471 -0.92963091 0 0 Z " fill="#FEF8F6" transform="translate(109,84)"/>
<path d="M0 0 C3.4023716 3.20284981 5.32524605 6.65997616 7 11 C7 11.66 7 12.32 7 13 C6.23147705 13.0093457 5.4629541 13.01869141 4.67114258 13.02832031 C-34.68660128 13.62656037 -69.17973521 23.18877468 -102.25244141 45.3425293 C-102.97093262 45.82246338 -103.68942383 46.30239746 -104.4296875 46.796875 C-105.05085449 47.22323242 -105.67202148 47.64958984 -106.31201172 48.08886719 C-108 49 -108 49 -111 49 C-85.71660912 24.76789357 -37.22637563 -7.84990964 0 0 Z " fill="#4F5347" transform="translate(385,329)"/>
<path d="M0 0 C2.64 1.32 5.28 2.64 8 4 C7.40165275 8.14298667 5.99335715 11.18194377 3.9375 14.8125 C3.38964844 15.78832031 2.84179688 16.76414062 2.27734375 17.76953125 C1.85582031 18.50558594 1.43429687 19.24164063 1 20 C1.74636719 20.29648438 2.49273437 20.59296875 3.26171875 20.8984375 C6.53180203 22.21393463 9.76359877 23.60390535 13 25 C13.2475 24.154375 13.495 23.30875 13.75 22.4375 C15.13973627 18.61572526 16.91120838 15.48131937 19 12 C22.82097239 12.53069061 25.06171403 13.49701566 28 16 C26.46996489 20.1022471 24.51938223 23.90007893 22.41015625 27.7265625 C22.06496445 28.35605804 21.71977264 28.98555359 21.36412048 29.63412476 C20.63691181 30.95775767 19.90816984 32.28054921 19.17797852 33.60253906 C18.06390076 35.6224603 16.95851816 37.64697811 15.85351562 39.671875 C15.1437545 40.96122683 14.43348526 42.2502991 13.72265625 43.5390625 C13.39443375 44.14223297 13.06621124 44.74540344 12.7280426 45.36685181 C11.10103036 48.29374468 9.54594136 50.79786617 7 53 C4.69 51.68 2.38 50.36 0 49 C0.59834725 44.85701333 2.00664285 41.81805623 4.0625 38.1875 C4.61035156 37.21167969 5.15820312 36.23585937 5.72265625 35.23046875 C6.14417969 34.49441406 6.56570313 33.75835937 7 33 C5.54462432 32.16151196 4.08559627 31.32936066 2.625 30.5 C1.81289063 30.0359375 1.00078125 29.571875 0.1640625 29.09375 C-1.89336874 27.84964141 -1.89336874 27.84964141 -4 28 C-5.46582355 30.14281033 -6.81123514 32.26706396 -8.125 34.5 C-8.68380859 35.43005859 -8.68380859 35.43005859 -9.25390625 36.37890625 C-10.17578953 37.91537838 -11.08873475 39.45720675 -12 41 C-17.55410639 39.55110268 -17.55410639 39.55110268 -19.37719727 37.29785156 C-20.332493 33.77325594 -18.87304096 32.09591805 -17.08984375 28.984375 C-16.76593155 28.40971497 -16.44201935 27.83505493 -16.10829163 27.24298096 C-15.06618 25.40307493 -14.00219494 23.57691152 -12.9375 21.75 C-12.24661396 20.53597058 -11.5571448 19.32113367 -10.86914062 18.10546875 C-7.38672681 11.98052291 -3.78988696 5.93970588 0 0 Z " fill="#FEFAF8" transform="translate(369,44)"/>
<path d="M0 0 C29.8875 14.775 29.8875 14.775 33 21 C34.10440198 28.25749876 30.74741137 33.93194397 27 40 C25.04259721 42.53620469 23.89776239 43.37725306 21 45 C13.47253371 45.93988431 8.49047521 43.24195831 1.9375 39.75 C0.98294922 39.25886719 0.02839844 38.76773438 -0.95507812 38.26171875 C-6.04224551 35.62860934 -11.05063439 32.8831256 -16 30 C-14.35 26.7 -12.7 23.4 -11 20 C-8.51950881 21.22654963 -6.04059885 22.4561329 -3.5625 23.6875 C-2.82837891 24.05037109 -2.09425781 24.41324219 -1.33789062 24.78710938 C2.5438466 26.71939767 6.2989605 28.73498994 10 31 C14.14513727 33.38804632 17.27754874 33.42931375 22 33 C23.24943337 29.2516999 23.61039532 26.93365875 23 23 C21.53944158 21.65276302 21.53944158 21.65276302 19.58984375 20.60546875 C18.864021 20.18136719 18.13819824 19.75726563 17.39038086 19.3203125 C13.28771161 17.0542278 9.16097435 14.84468716 5 12.6875 C4.12988281 12.23310547 3.25976562 11.77871094 2.36328125 11.31054688 C0.24366512 10.20415384 -1.87742443 9.10070155 -4 8 C-2.25 2.25 -2.25 2.25 0 0 Z " fill="#FEF8F6" transform="translate(57,137)"/>
<path d="M0 0 C4.26992489 1.47238789 6.7186375 3.0709868 9 7 C9 7.66 9 8.32 9 9 C5.24391637 10.82438348 3.01050192 11.30070333 -1 10 C-1.66 9.34 -2.32 8.68 -3 8 C-7.14509433 7.71397838 -7.14509433 7.71397838 -11 9 C-10.67 10.65 -10.34 12.3 -10 14 C-8.91460937 14.20753906 -7.82921875 14.41507813 -6.7109375 14.62890625 C7.53807861 17.59579287 7.53807861 17.59579287 11.2109375 23.140625 C12.5802739 26.3673781 12.62381874 28.56899692 12 32 C8.86482843 37.62168695 6.09511758 40.94565675 0 43 C-11.88955999 44.27972736 -11.88955999 44.27972736 -16.625 41.25 C-18.74466235 39.24189882 -20.53465623 37.5236476 -22 35 C-22 34.01 -22 33.02 -22 32 C-19.03 31.34 -16.06 30.68 -13 30 C-12.67 30.66 -12.34 31.32 -12 32 C-9.68810345 34.31189655 -9.13968761 34.31728515 -6 34.375 C-2.68127952 34.31214545 -1.94083564 33.96055709 1 32 C0.67 30.68 0.34 29.36 0 28 C-0.96099609 27.83564453 -0.96099609 27.83564453 -1.94140625 27.66796875 C-9.26571451 26.32536083 -16.06897216 25.06895734 -21 19 C-22.20643566 15.38069302 -22.32268559 12.80768995 -22 9 C-17.01010937 -0.61015972 -9.95371184 -0.92650903 0 0 Z " fill="#FEF9F6" transform="translate(249,22)"/>
<path d="M0 0 C2.21484375 1.8984375 2.21484375 1.8984375 3.9375 4.375 C4.52402344 5.18710937 5.11054688 5.99921875 5.71484375 6.8359375 C7 9 7 9 7 11 C6.030625 11.09796875 5.06125 11.1959375 4.0625 11.296875 C-35.74826652 15.6026405 -70.17945482 35.78390205 -98 64 C-98.66 63.67 -99.32 63.34 -100 63 C-96.79862165 59.20234322 -93.59108754 55.41006144 -90.37597656 51.62402344 C-89.24332519 50.28718935 -88.11689604 48.94508593 -86.9921875 47.6015625 C-69.42120381 26.9250096 -28.95221832 -3.17192135 0 0 Z " fill="#52554A" transform="translate(372,312)"/>
<path d="M0 0 C16.45542226 -0.26419256 32.87395619 8.29203382 47 16 C48.05574219 16.56460937 49.11148438 17.12921875 50.19921875 17.7109375 C69.91976024 28.69257237 87.14770683 45.30165837 101 63 C100.67 63.66 100.34 64.32 100 65 C99.40574219 64.38253906 98.81148438 63.76507813 98.19921875 63.12890625 C83.74556695 48.36055596 67.28058142 36.54637461 49 27 C48.39075684 26.67902344 47.78151367 26.35804688 47.15380859 26.02734375 C32.24282608 18.28642641 15.16037641 12.81374655 -1.625 11.375 C-2.88183594 11.26285156 -2.88183594 11.26285156 -4.1640625 11.1484375 C-4.76992187 11.09945313 -5.37578125 11.05046875 -6 11 C-4.54955729 6.89041233 -2.48889248 3.56741255 0 0 Z " fill="#515449" transform="translate(157,312)"/>
<path d="M0 0 C4.48361404 2.60149994 7.63027485 5.29398093 9.84375 10.08984375 C10.83771539 15.66019147 9.9715343 20.46195335 7.15625 25.359375 C4.13079457 29.34829391 0.93978888 30.79737321 -3.84375 31.46484375 C-8.34212143 31.66042512 -11.4632194 31.40485766 -15.59375 29.52734375 C-20.04722689 25.29110963 -22.35681666 21.64640471 -22.59375 15.52734375 C-22.31764903 10.11576466 -20.73727721 6.54925348 -16.71875 2.83984375 C-15.873125 2.26234375 -15.0275 1.68484375 -14.15625 1.08984375 C-13.558125 0.67734375 -12.96 0.26484375 -12.34375 -0.16015625 C-8.0458719 -1.63371445 -4.161391 -1.75652917 0 0 Z " fill="#4C5044" transform="translate(311.15625,186.91015625)"/>
<path d="M0 0 C3.76725399 2.5388016 6.72460587 4.87237137 8.875 8.9375 C9.88353937 14.13300585 9.66930023 19.10815845 7.25 23.875 C4.0395862 28.01474412 1.60272799 30.54317867 -3.74609375 31.31640625 C-8.29619008 31.50779429 -11.40935382 31.27580547 -15.5625 29.3125 C-20.13069052 25.07856732 -22.90174004 20.89569452 -23.375 14.625 C-23.01724539 9.34811952 -21.57458403 6.27557757 -17.6875 2.6875 C-16.841875 2.11 -15.99625 1.5325 -15.125 0.9375 C-14.526875 0.525 -13.92875 0.1125 -13.3125 -0.3125 C-8.68488687 -1.89911022 -4.52268586 -1.53771319 0 0 Z " fill="#4C5044" transform="translate(224.125,192.0625)"/>
<path d="M0 0 C4.2502579 2.50015171 6.9531181 5.40623621 9.1875 9.875 C9.32165472 12.5473621 9.23068541 15.19750488 9.1875 17.875 C5.8875 17.545 2.5875 17.215 -0.8125 16.875 C-1.4725 14.235 -2.1325 11.595 -2.8125 8.875 C-6.11817489 8.02112895 -6.11817489 8.02112895 -9.8125 7.875 C-13.22997785 10.09174239 -14.54072373 12.80883752 -15.50390625 16.73828125 C-16.2772669 22.09306952 -16.53044682 27.72115954 -14.8125 32.875 C-11.7590865 33.16859745 -8.85506578 33.3201258 -5.8125 32.875 C-3.20339037 30.5566144 -3.20339037 30.5566144 -1.8125 27.875 C1.1575 28.535 4.1275 29.195 7.1875 29.875 C5.86511712 35.56124639 3.74401636 37.55254016 -0.8125 40.875 C-5.29414105 43.11582052 -10.96254932 42.46991217 -15.8125 41.875 C-21.51992073 39.32956081 -24.50070318 35.63734223 -26.8125 29.875 C-27.1237237 27.14408216 -27.29085023 24.71927434 -27.25 22 C-27.24170166 21.29182129 -27.23340332 20.58364258 -27.22485352 19.85400391 C-27.00776531 13.14667362 -25.76497093 8.85377357 -21.05859375 4.10546875 C-14.4648327 -1.77247691 -8.56679845 -2.52790774 0 0 Z " fill="#FEFBF9" transform="translate(317.8125,26.125)"/>
<path d="M0 0 C0.495 4.95 0.495 4.95 1 10 C-3.3733353 10.84223216 -7.74890966 11.67221195 -12.125 12.5 C-13.3625 12.73847656 -14.6 12.97695312 -15.875 13.22265625 C-17.67324219 13.56103516 -17.67324219 13.56103516 -19.5078125 13.90625 C-21.15740967 14.22045898 -21.15740967 14.22045898 -22.84033203 14.54101562 C-25.94359741 14.99180676 -28.86931374 15.08249503 -32 15 C-31.855625 15.72445312 -31.71125 16.44890625 -31.5625 17.1953125 C-30.60449608 22.18491623 -29.72392851 26.89267738 -30 32 C-32.70879335 33.35439668 -35.00933268 33.06501451 -38 33 C-38.67590188 29.62678224 -39.33905518 26.25117758 -40 22.875 C-40.19078125 21.92367187 -40.3815625 20.97234375 -40.578125 19.9921875 C-41.49756891 15.26361884 -42.2609763 10.84437265 -42 6 C-40.23849609 5.72736328 -40.23849609 5.72736328 -38.44140625 5.44921875 C-36.81504371 5.19570003 -35.18874651 4.94176198 -33.5625 4.6875 C-32.70954346 4.55432373 -31.85658691 4.42114746 -30.9777832 4.28393555 C-24.50246141 3.26246116 -18.04827002 2.14714861 -11.60961914 0.91479492 C-7.68606592 0.19087241 -3.98796289 -0.12984065 0 0 Z " fill="#FDF8F5" transform="translate(504,214)"/>
<path d="M0 0 C4.72856381 1.14969002 7.31738564 4.44967881 9.8671875 8.359375 C11.56399604 13.07273205 11.79465717 16.67881825 9.7421875 21.296875 C7.83095778 23.68591215 6.93303195 24.66747376 3.9921875 25.484375 C-0.27719481 25.40674987 -2.39222373 24.97404789 -5.7578125 22.296875 C-9.0340178 18.20161837 -11.14038398 14.70490134 -11.5078125 9.421875 C-11.0078125 5.484375 -11.0078125 5.484375 -9.0078125 2.484375 C-5.87493542 0.39579028 -3.78095135 -0.25681934 0 0 Z " fill="#E13D21" transform="translate(373.0078125,453.515625)"/>
<path d="M0 0 C2.8125 0.5 2.8125 0.5 5.8125 2.5 C6.5 5.125 6.5 5.125 6.8125 7.5 C7.740625 7.4175 8.66875 7.335 9.625 7.25 C12.8125 7.5 12.8125 7.5 14.75 9.0625 C16.35735473 12.74996084 15.96946229 14.64345902 14.8125 18.5 C12.69312337 21.38821971 10.33695301 23.96236447 7.8125 26.5 C3.75081292 24.85575077 0.87706388 21.96975146 -2.25 19 C-5.12594517 16.28869481 -7.88519724 13.70153517 -11.1875 11.5 C-9.50852088 5.79147101 -6.05147682 0.94925127 0 0 Z " fill="#FDE402" transform="translate(432.1875,404.5)"/>
<path d="M0 0 C3.84507807 0.96616563 7.82643708 2.54787066 10 6 C10.5 8.9375 10.5 8.9375 10 12 C7.80702289 14.87355621 6.08194156 15.8495425 2.5 16.34765625 C-4.04916552 16.5568657 -10.47907102 15.95985715 -15.69140625 11.578125 C-17 10 -17 10 -17.4375 7.0625 C-16.11608803 -2.18738378 -7.28600464 -0.74546211 0 0 Z " fill="#E03A26" transform="translate(49,219)"/>
<path d="M0 0 C5.35204794 1.90496622 7.77971049 5.55569394 10.6875 10.3125 C12.60450855 14.50953865 13.19423292 17.66744828 12.6875 22.3125 C10.73952434 25.12624263 9.58334898 26.10576562 6.25 26.875 C1.51221216 25.83499779 -0.71892939 22.10958053 -3.5 18.375 C-6.11505243 13.95646314 -8.13463394 9.51934831 -7.3125 4.3125 C-5.12254638 0.9837705 -3.98728092 0.37615858 0 0 Z " fill="#E03C27" transform="translate(160.3125,53.6875)"/>
<path d="M0 0 C1.9375 1.125 1.9375 1.125 3 3 C3.65487467 6.12884566 3.46649674 8.11471641 1.96875 10.95703125 C-1.57264249 16.10188757 -6.16840326 20.57608414 -12 23 C-14.76490299 22.7162123 -16.48886504 22.33488152 -18.8125 20.8125 C-20.69312928 17.94206584 -20.57525502 16.38761287 -20 13 C-15.7212032 5.26175047 -9.37272649 -1.44195792 0 0 Z " fill="#E03B26" transform="translate(435,101)"/>
<path d="M0 0 C2.125 1.625 2.125 1.625 3 4 C3.14083646 7.23923849 2.75157524 9.12808827 0.609375 11.61328125 C-4.29773651 16.06725859 -9.51981436 19.0560818 -16.25 19.4375 C-20 19 -20 19 -22 17.3125 C-23.18208081 14.57893812 -23.33103035 12.95690625 -23 10 C-17.27356106 2.8782866 -9.20141741 -1.6025952 0 0 Z " fill="#E03A26" transform="translate(475,158)"/>
<path d="M0 0 C2 1 2 1 3.125 3.375 C4 6 4 6 4 9 C7.63 9 11.26 9 15 9 C10.375 13.875 10.375 13.875 7 15 C7.99 18.63 8.98 22.26 10 26 C5 24 5 24 3 22 C-0.89449703 22.30746029 -2.99455496 23.61637118 -6 26 C-6.66 26 -7.32 26 -8 26 C-7.44894091 22.0507432 -6.61064629 18.65079826 -5 15 C-6.1446875 14.566875 -6.1446875 14.566875 -7.3125 14.125 C-10 13 -10 13 -13 11 C-13 10.34 -13 9.68 -13 9 C-9.7 8.67 -6.4 8.34 -3 8 C-2.01 5.36 -1.02 2.72 0 0 Z " fill="#54574C" transform="translate(261,146)"/>
<path d="M0 0 C2.46278801 2.46278801 2.99771255 4.70676982 4 8 C7.3 8.33 10.6 8.66 14 9 C12 11 10 13 8 15 C7.82576399 18.83319229 8.12196632 22.26835686 9 26 C8.0925 25.360625 7.185 24.72125 6.25 24.0625 C2.84644333 21.69653219 2.84644333 21.69653219 -1 21 C-3.63624434 22.89229266 -3.63624434 22.89229266 -6 25 C-6.66 25 -7.32 25 -8 25 C-7.85820313 24.33613281 -7.71640625 23.67226563 -7.5703125 22.98828125 C-7.1108952 20.22774745 -6.80761397 17.7960103 -7 15 C-8.74783613 12.60143103 -10.44069426 11.61915261 -13 10 C-13 9.67 -13 9.34 -13 9 C-9.7 9 -6.4 9 -3 9 C-2.01 6.03 -1.02 3.06 0 0 Z " fill="#FDE901" transform="translate(42,261)"/>
<path d="M0 0 C2.46278801 2.46278801 2.99771255 4.70676982 4 8 C7.3 8.33 10.6 8.66 14 9 C9.375 13.875 9.375 13.875 6 15 C6.34224609 15.81404297 6.34224609 15.81404297 6.69140625 16.64453125 C6.97886719 17.35996094 7.26632812 18.07539063 7.5625 18.8125 C7.85253906 19.52019531 8.14257812 20.22789062 8.44140625 20.95703125 C9 23 9 23 8 26 C5.69 24.35 3.38 22.7 1 21 C0.443125 21.28875 -0.11375 21.5775 -0.6875 21.875 C-3.08494645 23.0413253 -5.51596939 24.0339881 -8 25 C-7.85820312 24.33613281 -7.71640625 23.67226563 -7.5703125 22.98828125 C-7.1108952 20.22774745 -6.80761397 17.7960103 -7 15 C-8.74783613 12.60143103 -10.44069426 11.61915261 -13 10 C-13 9.67 -13 9.34 -13 9 C-9.7 9 -6.4 9 -3 9 C-2.01 6.03 -1.02 3.06 0 0 Z " fill="#FEEA01" transform="translate(489,261)"/>
<path d="M0 0 C2.64581609 -0.22296203 4.99279502 -0.28148752 7.625 -0.1875 C10.05875 -0.125625 12.4925 -0.06375 15 0 C15 5.28 15 10.56 15 16 C9.39 16 3.78 16 -2 16 C-2.25 3.375 -2.25 3.375 0 0 Z " fill="#595C51" transform="translate(246,262)"/>
<path d="M0 0 C1.32 0.66 2.64 1.32 4 2 C2.65150163 6.35970831 0.95092154 10.31341438 -1.125 14.375 C-1.66382812 15.43460937 -2.20265625 16.49421875 -2.7578125 17.5859375 C-3.16773437 18.38257813 -3.57765625 19.17921875 -4 20 C1.09422106 18.40711672 5.66936422 16.24699079 10.4140625 13.828125 C13 13 13 13 15.3359375 13.859375 C15.88507813 14.23578125 16.43421875 14.6121875 17 15 C15.6415798 18.04332765 14.11536976 20.12309151 11.7421875 22.453125 C11.11699219 23.071875 10.49179688 23.690625 9.84765625 24.328125 C9.19667969 24.96234375 8.54570313 25.5965625 7.875 26.25 C7.21628906 26.8996875 6.55757812 27.549375 5.87890625 28.21875 C4.25703357 29.81711727 2.6306719 31.41061897 1 33 C-0.485 32.505 -0.485 32.505 -2 32 C-0.43416404 27.96278439 2.44173865 25.52929418 5.625 22.75 C6.140625 22.29109375 6.65625 21.8321875 7.1875 21.359375 C8.4534602 20.23407704 9.72607942 19.11627823 11 18 C9.80761719 18.5053125 8.61523438 19.010625 7.38671875 19.53125 C5.82042923 20.18777854 4.25401653 20.84401329 2.6875 21.5 C1.90181641 21.83386719 1.11613281 22.16773438 0.30664062 22.51171875 C-0.45068359 22.82753906 -1.20800781 23.14335937 -1.98828125 23.46875 C-3.03302612 23.90864258 -3.03302612 23.90864258 -4.09887695 24.35742188 C-6 25 -6 25 -9 25 C-8.35014905 20.28629244 -6.48438608 16.42313556 -4.4375 12.1875 C-3.9434668 11.14819336 -3.9434668 11.14819336 -3.43945312 10.08789062 C-2.63127749 8.38955052 -1.81631623 6.69444231 -1 5 C-1.91523437 5.9384375 -2.83046875 6.876875 -3.7734375 7.84375 C-4.97369391 9.06276041 -6.17422919 10.28149629 -7.375 11.5 C-7.97828125 12.12003906 -8.5815625 12.74007813 -9.203125 13.37890625 C-9.78320312 13.96542969 -10.36328125 14.55195313 -10.9609375 15.15625 C-11.76217041 15.97319336 -11.76217041 15.97319336 -12.57958984 16.80664062 C-14 18 -14 18 -16 18 C-15.55738627 13.64591613 -12.68327622 11.30925961 -9.6875 8.4375 C-9.20087891 7.95603516 -8.71425781 7.47457031 -8.21289062 6.97851562 C-5.61293212 4.43454546 -2.97294304 2.09730186 0 0 Z " fill="#FDE602" transform="translate(98,405)"/>
<path d="M0 0 C5.28 0 10.56 0 16 0 C16 5.28 16 10.56 16 16 C10.72 16 5.44 16 0 16 C0 10.72 0 5.44 0 0 Z " fill="#515449" transform="translate(263,280)"/>
<path d="M0 0 C5.28 0 10.56 0 16 0 C16 5.28 16 10.56 16 16 C10.72 16 5.44 16 0 16 C0 10.72 0 5.44 0 0 Z " fill="#52554A" transform="translate(245,280)"/>
<path d="M0 0 C10.7421875 -0.1953125 10.7421875 -0.1953125 14 0 C16 2 16 2 16.1953125 5.2578125 C16.13020833 8.83854167 16.06510417 12.41927083 16 16 C10.72 16 5.44 16 0 16 C0 10.72 0 5.44 0 0 Z " fill="#505347" transform="translate(263,262)"/>
<path d="M0 0 C2 1.0625 2 1.0625 3 3 C3.49836194 6.91570092 3.67687167 9.07243512 1.3125 12.3125 C-1.05864315 14.04279365 -3.22280319 15.07426773 -6 16 C-5.67 16.9075 -5.34 17.815 -5 18.75 C-4 22 -4 22 -4 26 C-4.99 26 -5.98 26 -7 26 C-8.3417678 22.73256344 -9.67194359 19.46053092 -11 16.1875 C-11.3815625 15.25873047 -11.763125 14.32996094 -12.15625 13.37304688 C-12.5171875 12.48037109 -12.878125 11.58769531 -13.25 10.66796875 C-13.58515625 9.84578857 -13.9203125 9.0236084 -14.265625 8.17651367 C-15 6 -15 6 -15 3 C-9.67613477 0.33806738 -5.96813537 -0.59681354 0 0 Z " fill="#FDE403" transform="translate(356,464)"/>
<path d="M0 0 C0 0.99 0 1.98 0 3 C-7.92 6.96 -7.92 6.96 -16 11 C-9.73 11.33 -3.46 11.66 3 12 C2 16 2 16 -1.37890625 18.140625 C-2.76506136 18.86012217 -4.16147119 19.55991274 -5.5625 20.25 C-8.016875 21.4875 -10.47125 22.725 -13 24 C-6.73 24.33 -0.46 24.66 6 25 C6 25.66 6 26.32 6 27 C-2.58 27 -11.16 27 -20 27 C-19 23 -19 23 -15.62109375 20.859375 C-14.23493864 20.13987783 -12.83852881 19.44008726 -11.4375 18.75 C-8.983125 17.5125 -6.52875 16.275 -4 15 C-10.27 14.67 -16.54 14.34 -23 14 C-23 12.68 -23 11.36 -23 10 C-19.73408178 8.32356962 -16.46150893 6.66056656 -13.1875 5 C-12.25873047 4.52304687 -11.32996094 4.04609375 -10.37304688 3.5546875 C-9.48037109 3.10351562 -8.58769531 2.65234375 -7.66796875 2.1875 C-6.84578857 1.76855469 -6.0236084 1.34960938 -5.17651367 0.91796875 C-3 0 -3 0 0 0 Z " fill="#FDE702" transform="translate(52,302)"/>
<path d="M0 0 C10.75255102 0.21045918 10.75255102 0.21045918 14.625 3.4375 C18.19082227 7.28483456 18.28822506 9.60822342 18.21484375 14.6796875 C17.90367625 18.04029645 16.90955837 20.23443271 15 23 C10.92386866 26.13716537 8.22629085 26.24736565 3.1875 25.6875 C2.02605469 25.56761719 0.86460937 25.44773437 -0.33203125 25.32421875 C-1.21246094 25.21722656 -2.09289062 25.11023438 -3 25 C-2.68978487 21.95808469 -2.37690547 18.91648266 -2.0625 15.875 C-1.97548828 15.0190625 -1.88847656 14.163125 -1.79882812 13.28125 C-1.33583609 8.82280819 -0.80306863 4.41326006 0 0 Z M3 4 C1.76240177 7.71279469 1.64391103 11.31306346 1.4375 15.1875 C1.39431641 15.93708984 1.35113281 16.68667969 1.30664062 17.45898438 C1.20077315 19.30578375 1.0999024 21.15286834 1 23 C7.13427064 23.61133358 7.13427064 23.61133358 12.5 21.125 C15.27293071 17.1966815 15.6235898 13.72662992 15 9 C13.69788858 5.87195445 13.69788858 5.87195445 11 4 C8.19795838 3.58824961 5.85684128 3.76192989 3 4 Z " fill="#FCE103" transform="translate(228,478)"/>
<path d="M0 0 C1.65 0.33 3.3 0.66 5 1 C5.81627446 3.39460588 6.62811645 5.79056526 7.4375 8.1875 C7.66759766 8.86103516 7.89769531 9.53457031 8.13476562 10.22851562 C9.34812561 13.83342572 10.25066635 17.25333173 11 21 C12.32 15.39 13.64 9.78 15 4 C15.99 4 16.98 4 18 4 C17.39496146 9.6555181 16.37814297 15.00213991 14.9375 20.5 C14.75123047 21.22703125 14.56496094 21.9540625 14.37304688 22.703125 C13.91973545 24.46987724 13.4604998 26.23510775 13 28 C10.47943887 27.02910517 9.25277533 26.49974763 8.01098633 24.04467773 C7.78693115 23.26552002 7.56287598 22.4863623 7.33203125 21.68359375 C7.07873047 20.83732422 6.82542969 19.99105469 6.56445312 19.11914062 C6.31630859 18.23419922 6.06816406 17.34925781 5.8125 16.4375 C5.30049934 14.68551759 4.78629395 12.93417747 4.26953125 11.18359375 C4.04885986 10.40556396 3.82818848 9.62753418 3.60083008 8.82592773 C3.15286534 7.0026457 3.15286534 7.0026457 2 6 C0.68 11.94 -0.64 17.88 -2 24 C-2.99 24 -3.98 24 -5 24 C-4.88406494 23.45061768 -4.76812988 22.90123535 -4.64868164 22.33520508 C-4.11968524 19.82769342 -3.59108912 17.32009754 -3.0625 14.8125 C-2.78889648 13.51602539 -2.78889648 13.51602539 -2.50976562 12.19335938 C-1.65404145 8.13255919 -0.80092216 4.07205686 0 0 Z " fill="#FCE003" transform="translate(204,473)"/>
<path d="M0 0 C2.75329021 1.79562405 4.52627461 3.05254922 6 6 C6.7071212 12.83550492 5.26008425 16.64411373 1 22 C-1.55539829 24.72575817 -2.67732606 24.95893241 -6.4375 25.4375 C-10.56657343 24.93042081 -12.13012478 23.95428331 -15 21 C-16.41809815 16.74570554 -16.95033817 13.0717372 -15.0234375 8.87109375 C-11.07683013 2.29745019 -8.1523213 -1.00116227 0 0 Z M-11 8 C-13.46536163 11.52194518 -13.38342592 14.78231489 -13 19 C-12.01951062 21.06402685 -12.01951062 21.06402685 -10 22 C-7.13023717 22.83483326 -7.13023717 22.83483326 -4 22 C0.15493655 18.91265131 2.294319 15.35172381 3.0625 10.25 C3.33561679 7.50924906 3.36347748 6.476059 1.67578125 4.265625 C-0.04328197 2.7668532 -0.04328197 2.7668532 -2.875 2.5 C-7.0383677 3.16613883 -8.36703081 4.78192655 -11 8 Z " fill="#FDE103" transform="translate(164,455)"/>
<path d="M0 0 C4.72856381 1.14969002 7.31738564 4.44967881 9.8671875 8.359375 C11.56399604 13.07273205 11.79465717 16.67881825 9.7421875 21.296875 C7.83095778 23.68591215 6.93303195 24.66747376 3.9921875 25.484375 C-0.27719481 25.40674987 -2.39222373 24.97404789 -5.7578125 22.296875 C-9.0340178 18.20161837 -11.14038398 14.70490134 -11.5078125 9.421875 C-11.0078125 5.484375 -11.0078125 5.484375 -9.0078125 2.484375 C-5.87493542 0.39579028 -3.78095135 -0.25681934 0 0 Z M-6.0078125 3.484375 C-8.51085628 7.23894067 -8.46061324 9.03183434 -8.0078125 13.484375 C-6.29615273 16.76048903 -6.29615273 16.76048903 -4.0078125 19.484375 C-3.5746875 20.12375 -3.1415625 20.763125 -2.6953125 21.421875 C-0.83720349 22.81258198 -0.83720349 22.81258198 2.5546875 22.359375 C6.24661144 21.82803567 6.24661144 21.82803567 7.9921875 18.484375 C8.8395949 13.2788724 7.02769695 10.33713074 4.28125 6.12109375 C3.07217373 4.34688539 3.07217373 4.34688539 0.9921875 3.484375 C-2.5078125 3.15104167 -2.5078125 3.15104167 -6.0078125 3.484375 Z " fill="#FDE403" transform="translate(373.0078125,453.515625)"/>
<path d="M0 0 C2.85010285 1.34688405 3.86064502 2.4862579 6 5 C6.76868074 9.22774409 6.32404564 11.3389469 4.4375 15.1875 C1.11093629 19.02584274 -2.0192863 21.3936571 -7.0546875 22.41796875 C-10.83254849 22.68170622 -12.86014126 22.09323916 -16 20 C-18.06453577 16.90319634 -18.79265802 14.80752825 -18.55859375 11.0625 C-17.33620185 6.54905298 -13.98640712 3.1831389 -10.0390625 0.83203125 C-6.6982784 -0.53116226 -3.49782294 -0.64327778 0 0 Z M-14 8 C-15.90620511 10.54160681 -16.05154893 11.45873619 -15.75 14.625 C-15.1515662 17.15600229 -15.1515662 17.15600229 -13 19 C-8.78055499 19.65474147 -6.40748052 19.82778939 -2.6953125 17.64453125 C0.73746027 14.87754537 2.75890378 13.13972761 3.6875 8.75 C3.145803 6.06257073 3.145803 6.06257073 1.9375 4.125 C-4.18686922 0.56891464 -9.43007841 3.71338891 -14 8 Z " fill="#FDE402" transform="translate(87,389)"/>
<path d="M0 0 C0 0.99 0 1.98 0 3 C-1.32 3.33 -2.64 3.66 -4 4 C-4 6.64 -4 9.28 -4 12 C-2.68 12.33 -1.36 12.66 0 13 C0.42152344 12.28972656 0.84304688 11.57945312 1.27734375 10.84765625 C1.82519531 9.92855469 2.37304688 9.00945312 2.9375 8.0625 C3.48277344 7.14597656 4.02804687 6.22945313 4.58984375 5.28515625 C6 3 6 3 7 2 C10.82011276 1.639612 13.15684085 1.45951337 16.4375 3.5625 C18.6232026 6.97219606 18.55004566 9.012169 18 13 C16.3125 16.375 16.3125 16.375 14 19 C11.25 19.875 11.25 19.875 9 20 C10 17 10 17 12.0625 15.1875 C14.32285175 13.0789102 14.32285175 13.0789102 14.25 9.75 C14.12625 8.38875 14.12625 8.38875 14 7 C11.525 6.505 11.525 6.505 9 6 C8.59007812 6.62648438 8.18015625 7.25296875 7.7578125 7.8984375 C7.21898437 8.71570313 6.68015625 9.53296875 6.125 10.375 C5.59132813 11.18710937 5.05765625 11.99921875 4.5078125 12.8359375 C3 15 3 15 1 17 C-5.25443787 16.77662722 -5.25443787 16.77662722 -7.5 14.4375 C-8.24618159 10.79986473 -8.02422802 7.57016624 -7 4 C-4.64044209 0.85392279 -3.97979628 0 0 0 Z " fill="#FDE203" transform="translate(483,304)"/>
<path d="M0 0 C1.625 1.1875 1.625 1.1875 2.625 4.1875 C1.635 4.5175 0.645 4.8475 -0.375 5.1875 C-0.375 4.5275 -0.375 3.8675 -0.375 3.1875 C-3.345 3.1875 -6.315 3.1875 -9.375 3.1875 C-9.705 4.5075 -10.035 5.8275 -10.375 7.1875 C-7.88155461 9.68094539 -6.93688885 9.42991972 -3.5 9.5625 C-0.18168997 9.85063112 1.41842282 10.06259287 4.3125 11.8125 C5.625 14.1875 5.625 14.1875 5.625 17.75 C4.50845579 21.58812071 3.96514584 22.23328273 0.625 24.1875 C-2.77355407 24.84106809 -5.97202223 24.82061214 -9.375 24.1875 C-12 21.6875 -12 21.6875 -13.375 19.1875 C-12.385 18.8575 -11.395 18.5275 -10.375 18.1875 C-10.00375 18.6825 -9.6325 19.1775 -9.25 19.6875 C-6.5734132 21.82876944 -4.71438377 21.53535248 -1.375 21.1875 C-0.385 20.5275 0.605 19.8675 1.625 19.1875 C1.625 17.8675 1.625 16.5475 1.625 15.1875 C-0.65878744 14.04560628 -2.15163188 14.05683497 -4.6875 13.9375 C-8.28234051 13.56001271 -9.40244646 13.16828748 -12.5 11 C-14.375 8.1875 -14.375 8.1875 -14.4375 5.0625 C-11.96714597 -1.62198738 -6.38812027 -2.18540957 0 0 Z " fill="#FDE303" transform="translate(304.375,478.8125)"/>
<path d="M0 0 C2.69082872 0.17635452 5.32851446 0.61835921 8 1 C7.67 1.99 7.34 2.98 7 4 C5.88625 3.95875 4.7725 3.9175 3.625 3.875 C-0.04366025 3.58878141 -0.04366025 3.58878141 -2 6 C-2.16687448 8.58354218 -2.16687448 8.58354218 -2 11 C1.12290635 10.51421457 3.99580359 10.0013988 7 9 C13.19330855 8.55762082 13.19330855 8.55762082 15.9375 10.0625 C17.66638145 13.21516617 17.48582979 15.47773401 17 19 C14.9075945 22.10485978 13.37224664 23.69021188 9.6640625 24.52734375 C7.43484885 24.78401977 5.24260524 24.94625565 3 25 C2.34 24.01 1.68 23.02 1 22 C4 21 4 21 7 21.0625 C10.18467943 21.26489372 10.18467943 21.26489372 13 19 C13.2502157 15.91634129 13.2502157 15.91634129 13 13 C12.030625 13.144375 11.06125 13.28875 10.0625 13.4375 C9.42957031 13.52386719 8.79664063 13.61023438 8.14453125 13.69921875 C6.63889421 13.91039189 5.13633935 14.14418137 3.63671875 14.39453125 C2.84910156 14.51183594 2.06148438 14.62914062 1.25 14.75 C0.51265625 14.86859375 -0.2246875 14.9871875 -0.984375 15.109375 C-3 15 -3 15 -4.734375 13.6953125 C-6 12 -6 12 -6.5 9.125 C-5.84347846 5.02174038 -4.10220196 3.64822119 -1 1 C-0.67 0.67 -0.34 0.34 0 0 Z " fill="#FDE402" transform="translate(387,442)"/>
<path d="M0 0 C2.0625 2 2.0625 2 3 4 C2.01 4.33 1.02 4.66 0 5 C-0.66 4.34 -1.32 3.68 -2 3 C-5.59679066 3.32326553 -5.59679066 3.32326553 -9 4 C-9 5.65 -9 7.3 -9 9 C-7.64455078 9.05607422 -7.64455078 9.05607422 -6.26171875 9.11328125 C-4.49248047 9.21189453 -4.49248047 9.21189453 -2.6875 9.3125 C-0.92986328 9.39951172 -0.92986328 9.39951172 0.86328125 9.48828125 C4 10 4 10 5.890625 11.328125 C7.80689703 14.21602792 7.41036566 16.65845107 7 20 C4.78136971 22.90717073 3.48055071 23.83981643 0 25 C-6.2601626 25.45528455 -6.2601626 25.45528455 -9.4375 23.5 C-9.953125 23.005 -10.46875 22.51 -11 22 C-10.67 21.01 -10.34 20.02 -10 19 C-9.34 19 -8.68 19 -8 19 C-8 19.66 -8 20.32 -8 21 C-6.54176788 21.0270043 -5.08339325 21.04639787 -3.625 21.0625 C-2.40683594 21.07990234 -2.40683594 21.07990234 -1.1640625 21.09765625 C1.04937142 21.14466334 1.04937142 21.14466334 3 20 C3.042721 18.33388095 3.04063832 16.66617115 3 15 C0.70551942 12.70551942 -4.88918353 13.60615919 -7.99609375 13.4765625 C-8.98738281 13.31929688 -9.97867187 13.16203125 -11 13 C-13.32749345 9.50875983 -13.50299316 8.10777749 -13 4 C-10.00273721 -0.9519994 -5.28396173 -1.04078034 0 0 Z " fill="#FDE502" transform="translate(325,474)"/>
<path d="M0 0 C-0.33 0.99 -0.66 1.98 -1 3 C-2.3921875 2.9071875 -2.3921875 2.9071875 -3.8125 2.8125 C-6.91967742 2.73698361 -6.91967742 2.73698361 -8.875 4.1875 C-10.34781139 6.56036279 -10.22223194 8.25913944 -10 11 C-8.5410574 10.52269162 -7.08286504 10.04308958 -5.625 9.5625 C-4.81289063 9.29566406 -4.00078125 9.02882813 -3.1640625 8.75390625 C-0.98968201 8.04820271 -0.98968201 8.04820271 1 7 C6.17431193 6.55963303 6.17431193 6.55963303 8.875 8 C10.71338233 11.26823526 10.84035621 14.43022236 10 18 C7.37232409 21.15321109 5.88815679 22.7394479 1.8203125 23.30078125 C-0.375 23.3125 -0.375 23.3125 -4 23 C-4 22.01 -4 21.02 -4 20 C-2.6696875 20.12375 -2.6696875 20.12375 -1.3125 20.25 C2.69008159 19.94791837 4.12835434 18.70272533 7 16 C6.67 14.35 6.34 12.7 6 11 C1.87557023 11.52369639 1.87557023 11.52369639 -1.9375 13.0625 C-5.08323682 14.49238037 -7.6015227 14.37074298 -11 14 C-13.30630614 11.99128175 -13.85403401 10.55467076 -14.625 7.625 C-13.75602097 3.97528807 -11.90653137 2.40022509 -9.0234375 0.09375 C-5.83700486 -1.62864602 -3.36603684 -0.96172481 0 0 Z " fill="#FEE901" transform="translate(412,430)"/>
<path d="M0 0 C10.55808656 3.07517084 10.55808656 3.07517084 15 5 C15 5.66 15 6.32 15 7 C10.28596212 6.52060632 6.33420699 6.03165952 2 4 C1.34 6.64 0.68 9.28 0 12 C4.455 12.99 4.455 12.99 9 14 C9 14.66 9 15.32 9 16 C5.7 15.67 2.4 15.34 -1 15 C-1.66 17.31 -2.32 19.62 -3 22 C0.63 23.32 4.26 24.64 8 26 C8 26.66 8 27.32 8 28 C2.33895411 27.50341703 -1.87674471 26.45489316 -7 24 C-6.40531984 18.33171945 -4.90757199 13.39677846 -2.9375 8.0625 C-2.65583984 7.28326172 -2.37417969 6.50402344 -2.08398438 5.70117188 C-1.39532294 3.79859875 -0.69850097 1.89898275 0 0 Z " fill="#FCE103" transform="translate(185,466)"/>
<path d="M0 0 C0.99 0.33 1.98 0.66 3 1 C2.01 4.63 1.02 8.26 0 12 C2.31 12.66 4.62 13.32 7 14 C7.2165625 12.576875 7.2165625 12.576875 7.4375 11.125 C8 8 8 8 9 6 C9.99 6.33 10.98 6.66 12 7 C11.01 9.97 10.02 12.94 9 16 C11.64 16.33 14.28 16.66 17 17 C18.32 13.37 19.64 9.74 21 6 C21.99 6.33 22.98 6.66 24 7 C22.35 11.95 20.7 16.9 19 22 C13.82300603 21.13716767 9.549141 19.97024916 4.6875 18.1875 C3.95982422 17.93935547 3.23214844 17.69121094 2.48242188 17.43554688 C0.38671875 16.66796875 0.38671875 16.66796875 -3 15 C-4.4862168 11.22814022 -3.5169551 8.95224935 -2.0625 5.25 C-1.49208984 3.77273438 -1.49208984 3.77273438 -0.91015625 2.265625 C-0.60980469 1.51796875 -0.30945313 0.7703125 0 0 Z " fill="#FCE103" transform="translate(473,323)"/>
<path d="M0 0 C5.40489519 1.52012677 8.98492628 5.27385218 13 9 C12.67 9.66 12.34 10.32 12 11 C8.06326356 9.68775452 5.77280706 8.08089673 3 5 C1.00016466 5.79117904 1.00016466 5.79117904 -1 7 C-1.33 7.99 -1.66 8.98 -2 10 C-0.02 11.65 1.96 13.3 4 15 C3.67 15.99 3.34 16.98 3 18 C0.69 16.35 -1.62 14.7 -4 13 C-6.0162233 13.71563266 -6.0162233 13.71563266 -8 15 C-8.33 16.32 -8.66 17.64 -9 19 C-6.36 21.31 -3.72 23.62 -1 26 C-1.33 26.66 -1.66 27.32 -2 28 C-5.23861303 26.55575365 -7.61969163 24.74227753 -10.25 22.375 C-10.95640625 21.74335938 -11.6628125 21.11171875 -12.390625 20.4609375 C-12.92171875 19.97882813 -13.4528125 19.49671875 -14 19 C-12.55857085 14.49553391 -10.23209335 11.78561013 -7 8.375 C-4.41787477 5.63524503 -2.08942826 3.13414239 0 0 Z " fill="#FDE303" transform="translate(119,426)"/>
<path d="M0 0 C2.1875 1.6875 2.1875 1.6875 4.1875 4.6875 C4.56228243 8.21045483 4.59877245 10.03631863 2.6875 13.0625 C2.1925 13.59875 1.6975 14.135 1.1875 14.6875 C0.1975 14.3575 -0.7925 14.0275 -1.8125 13.6875 C-1.461875 13.15125 -1.11125 12.615 -0.75 12.0625 C0.47674249 8.95475237 -0.08393569 6.89318297 -0.8125 3.6875 C-5.08769475 2.64051353 -7.80419204 2.32470808 -11.625 4.5 C-14.74557666 6.49863805 -14.74557666 6.49863805 -16.8125 8.6875 C-17.05462873 10.66878508 -17.05462873 10.66878508 -16.9375 12.8125 C-16.875625 14.730625 -16.875625 14.730625 -16.8125 16.6875 C-14.1725 17.0175 -11.5325 17.3475 -8.8125 17.6875 C-8.4825 18.6775 -8.1525 19.6675 -7.8125 20.6875 C-10.74156579 20.9853711 -12.95602551 21.18909903 -15.8125 20.6875 C-19.3466186 17.6687737 -20.61984394 15.76637394 -21.4375 11.1875 C-20.63259528 6.68003355 -19.10306255 4.83499461 -15.8125 1.6875 C-10.59994696 -1.71199111 -5.77244328 -2.69380686 0 0 Z " fill="#FCE103" transform="translate(76.8125,371.3125)"/>
<path d="M0 0 C0.67220351 1.93558599 1.33758077 3.87354372 2 5.8125 C2.556875 7.43091797 2.556875 7.43091797 3.125 9.08203125 C4 12 4 12 4 15 C3.34 15 2.68 15 2 15 C1.49384702 13.73160474 0.99530901 12.46016898 0.5 11.1875 C0.2215625 10.47980469 -0.056875 9.77210938 -0.34375 9.04296875 C-1 7 -1 7 -1 4 C-3.64 4.66 -6.28 5.32 -9 6 C-8.01 9.3 -7.02 12.6 -6 16 C-6.99 16 -7.98 16 -9 16 C-9.66 13.03 -10.32 10.06 -11 7 C-13.64 7.99 -16.28 8.98 -19 10 C-18.01 13.96 -17.02 17.92 -16 22 C-16.99 22.33 -17.98 22.66 -19 23 C-19.70045456 21.08802961 -20.384919 19.17019565 -21.0625 17.25 C-21.44535156 16.18265625 -21.82820313 15.1153125 -22.22265625 14.015625 C-23.01318704 10.94884225 -23.21445611 9.84788877 -22 7 C-20.08227539 5.90332031 -20.08227539 5.90332031 -17.59765625 5.078125 C-16.70755859 4.77519531 -15.81746094 4.47226562 -14.90039062 4.16015625 C-13.96388672 3.85980469 -13.02738281 3.55945313 -12.0625 3.25 C-10.66354492 2.77626953 -10.66354492 2.77626953 -9.23632812 2.29296875 C-2.37231128 0 -2.37231128 0 0 0 Z " fill="#FDE502" transform="translate(60,333)"/>
<path d="M0 0 C0 0.99 0 1.98 0 3 C-3.96 3 -7.92 3 -12 3 C-12 5.64 -12 8.28 -12 11 C-8.7 11 -5.4 11 -2 11 C-2 11.99 -2 12.98 -2 14 C-4.97 14 -7.94 14 -11 14 C-11 16.97 -11 19.94 -11 23 C-4.565 22.505 -4.565 22.505 2 22 C2 22.99 2 23.98 2 25 C-3.28 25.33 -8.56 25.66 -14 26 C-14.72773258 17.6310753 -15.13619975 9.39898453 -15 1 C-12.8750734 0.83240016 -10.75005624 0.66594799 -8.625 0.5 C-7.44164062 0.4071875 -6.25828125 0.314375 -5.0390625 0.21875 C-3.36213157 0.09804546 -1.68126944 0 0 0 Z " fill="#FEEA00" transform="translate(286,480)"/>
<path d="M0 0 C1.875 1.1875 1.875 1.1875 3 3 C3 6.63340914 2.00973898 7.9881553 -0.3125 10.8125 C-3 13 -3 13 -7 13 C-9.75 10.5 -9.75 10.5 -12 8 C-9.90344865 2.66332385 -5.95192767 -1.09640773 0 0 Z " fill="#E13D28" transform="translate(107,94)"/>
<path d="M0 0 C0.99 0.33 1.98 0.66 3 1 C3 2.65 3 4.3 3 6 C5.31 6 7.62 6 10 6 C9.505 6.33 9.01 6.66 8.5 7 C6.11820439 10.17572747 6.80831774 13.10246066 7 17 C6.113125 16.46375 5.22625 15.9275 4.3125 15.375 C1.11533935 13.64653899 1.11533935 13.64653899 -1.875 14.8125 C-2.57625 15.204375 -3.2775 15.59625 -4 16 C-3.67 13.69 -3.34 11.38 -3 9 C-4.32 8.34 -5.64 7.68 -7 7 C-7 6.67 -7 6.34 -7 6 C-5.02 6 -3.04 6 -1 6 C-0.67 4.02 -0.34 2.04 0 0 Z " fill="#55584D" transform="translate(283,175)"/>
<path d="M0 0 C0.66 0 1.32 0 2 0 C2.33 1.98 2.66 3.96 3 6 C5.31 6 7.62 6 10 6 C8.625 7.5 8.625 7.5 7 9 C6.34 9 5.68 9 5 9 C5.33 11.31 5.66 13.62 6 16 C5.113125 15.608125 4.22625 15.21625 3.3125 14.8125 C-0.00303974 13.62820892 -0.00303974 13.62820892 -2.875 15.375 C-3.57625 15.91125 -4.2775 16.4475 -5 17 C-4.7525 15.9275 -4.505 14.855 -4.25 13.75 C-3.57571378 9.97254504 -3.57571378 9.97254504 -5.9375 7.5625 C-6.618125 7.046875 -7.29875 6.53125 -8 6 C-5.69 6 -3.38 6 -1 6 C-0.67 4.02 -0.34 2.04 0 0 Z " fill="#54574C" transform="translate(234,175)"/>
<path d="M0 0 C5.45111321 2.58210626 10.17518523 5.38138892 15 9 C14.67 9.66 14.34 10.32 14 11 C11.69 10.34 9.38 9.68 7 9 C1.555 17.415 1.555 17.415 -4 26 C-4.99 25.67 -5.98 25.34 -7 25 C-5.11602924 19.62572551 -1.92561159 15.37427134 1.3203125 10.7421875 C3.26116708 8.10958515 3.26116708 8.10958515 3 5 C1.0624994 2.81222534 1.0624994 2.81222534 -1 1 C-0.67 0.67 -0.34 0.34 0 0 Z " fill="#FDE203" transform="translate(140,442)"/>
<path d="M0 0 C0.495 0.99 0.495 0.99 1 2 C-0.34578125 2.31130859 -0.34578125 2.31130859 -1.71875 2.62890625 C-21.50000264 7.51291388 -40.89696433 16.69382279 -56.73828125 29.6015625 C-59.38226171 31.23635526 -60.94653772 31.29183533 -64 31 C-62.3414641 29.07959001 -61.15499476 28.05923884 -58.76171875 27.14453125 C-55.52343995 25.80250057 -52.90257367 24.02956279 -50 22.0625 C-37.70430706 13.97989989 -24.55787414 7.15879258 -10.875 1.75 C-10.1231543 1.45013184 -9.37130859 1.15026367 -8.59667969 0.84130859 C-3.38181628 -1.12727209 -3.38181628 -1.12727209 0 0 Z " fill="#DDDCD9" transform="translate(335,350)"/>
<path d="M0 0 C0.99 0 1.98 0 3 0 C2.34 2.31 1.68 4.62 1 7 C6.94 10.3 12.88 13.6 19 17 C18.67 17.99 18.34 18.98 18 20 C16.89140625 19.43410156 15.7828125 18.86820312 14.640625 18.28515625 C13.17719097 17.54405825 11.71364333 16.80318456 10.25 16.0625 C9.52039063 15.68931641 8.79078125 15.31613281 8.0390625 14.93164062 C7.33007812 14.57392578 6.62109375 14.21621094 5.890625 13.84765625 C5.24125977 13.51773682 4.59189453 13.18781738 3.92285156 12.84790039 C1.96706921 11.98547884 0.08459306 11.45625821 -2 11 C-3.485 13.475 -3.485 13.475 -5 16 C-5.66 15.67 -6.32 15.34 -7 15 C-5.45454854 9.52067211 -2.84456788 4.88570819 0 0 Z " fill="#FDE403" transform="translate(463,351)"/>
<path d="M0 0 C10.82121158 5.77644746 10.82121158 5.77644746 14.5 8.4375 C15.7375 9.2109375 15.7375 9.2109375 17 10 C20.40451771 8.86516076 20.6005564 8.44722063 22.1875 5.4375 C22.785625 4.303125 23.38375 3.16875 24 2 C24.99 2.33 25.98 2.66 27 3 C25.44298069 7.67105792 22.91552627 11.08705685 20 15 C16.81974475 14.37330264 14.58965293 13.27499852 11.890625 11.49609375 C11.13652344 11.00302734 10.38242187 10.50996094 9.60546875 10.00195312 C8.43951172 9.22754883 8.43951172 9.22754883 7.25 8.4375 C6.45722656 7.91736328 5.66445313 7.39722656 4.84765625 6.86132812 C2.8950718 5.57920942 0.94606613 4.29198226 -1 3 C-0.67 2.01 -0.34 1.02 0 0 Z " fill="#FDE203" transform="translate(443,387)"/>
<path d="M0 0 C0.99 0 1.98 0 3 0 C3 7.26 3 14.52 3 22 C6.63 22 10.26 22 14 22 C14 22.99 14 23.98 14 25 C9.38 25 4.76 25 0 25 C0 16.75 0 8.5 0 0 Z " fill="#FDE702" transform="translate(252,481)"/>
<path d="M0 0 C-1 3 -1 3 -4.52734375 4.82421875 C-5.99266374 5.45639586 -7.46299521 6.07705247 -8.9375 6.6875 C-9.67935547 7.00783203 -10.42121094 7.32816406 -11.18554688 7.65820312 C-16.69301373 10 -16.69301373 10 -19 10 C-17.68 13.63 -16.36 17.26 -15 21 C-15.99 21.33 -16.98 21.66 -18 22 C-18.86604534 20.23494565 -19.71748642 18.46271926 -20.5625 16.6875 C-21.03816406 15.70136719 -21.51382813 14.71523438 -22.00390625 13.69921875 C-23 11 -23 11 -22 8 C-20.08227539 6.81738281 -20.08227539 6.81738281 -17.59765625 5.703125 C-16.70755859 5.30222656 -15.81746094 4.90132813 -14.90039062 4.48828125 C-13.96388672 4.07964844 -13.02738281 3.67101562 -12.0625 3.25 C-11.12986328 2.82589844 -10.19722656 2.40179688 -9.23632812 1.96484375 C-2.26252513 -1.13126257 -2.26252513 -1.13126257 0 0 Z " fill="#FDE502" transform="translate(68,353)"/>
<path d="M0 0 C1.875 0.8125 1.875 0.8125 3.875 2.8125 C3.63736269 7.20879018 1.73356441 9.58508856 -1.125 12.8125 C-4.00937779 11.51950306 -5.99719421 10.15308637 -8.125 7.8125 C-6.75651318 3.59299897 -5.05086908 -0.44566492 0 0 Z " fill="#E14121" transform="translate(441.125,414.1875)"/>
<path d="M0 0 C1 1 1 1 1.0625 4.0625 C1.041875 5.031875 1.02125 6.00125 1 7 C-1.8125 8.5625 -1.8125 8.5625 -5 10 C-5.99 9.67 -6.98 9.34 -8 9 C-9.4477922 6.10441559 -10 4.25811062 -10 1 C-6.23355012 -0.82941851 -4.03077875 -1.23162684 0 0 Z " fill="#E14021" transform="translate(355,467)"/>
<path d="M0 0 C1.1446875 0.3403125 1.1446875 0.3403125 2.3125 0.6875 C3.0625 2.875 3.0625 2.875 3.3125 5.6875 C1.375 8.5 1.375 8.5 -0.6875 10.6875 C-3.95704202 10.12378586 -5.51325883 9.18787734 -7.6875 6.6875 C-4.45731707 -0.51829268 -4.45731707 -0.51829268 0 0 Z " fill="#E13E21" transform="translate(432.6875,408.3125)"/>
<path d="M0 0 C3.79855079 1.56877504 6.20022003 3.96523122 9.0625 6.875 C9.91972656 7.73867188 10.77695312 8.60234375 11.66015625 9.4921875 C17 15.21535893 17 15.21535893 17 19 C9.409402 15.83725083 3.05529933 8.00460794 -1 1 C-0.67 0.67 -0.34 0.34 0 0 Z " fill="#FDE203" transform="translate(415,420)"/>
<path d="M0 0 C5.130059 1.57388218 8.74486315 4.76968615 12.8125 8.125 C13.50537109 8.68832031 14.19824219 9.25164062 14.91210938 9.83203125 C16.61264326 11.215914 18.30833994 12.60529551 20 14 C19.67 14.99 19.34 15.98 19 17 C14.83067988 15.03257717 11.47522847 12.40927859 7.875 9.5625 C7.24207031 9.07201172 6.60914063 8.58152344 5.95703125 8.07617188 C5.04630859 7.35977539 5.04630859 7.35977539 4.1171875 6.62890625 C3.56659668 6.19650635 3.01600586 5.76410645 2.44873047 5.31860352 C1 4 1 4 -1 1 C-0.67 0.67 -0.34 0.34 0 0 Z " fill="#FDE303" transform="translate(437,395)"/>
<path d="M0 0 C3.68144619 1.97370309 7.34506334 3.97763229 11 6 C11.97582031 6.53753906 12.95164062 7.07507813 13.95703125 7.62890625 C15.30861328 8.40041016 15.30861328 8.40041016 16.6875 9.1875 C17.51636719 9.65542969 18.34523438 10.12335938 19.19921875 10.60546875 C19.79347656 11.06566406 20.38773437 11.52585937 21 12 C21 12.99 21 13.98 21 15 C16.3116564 13.3018598 12.08143144 10.93837777 7.75 8.5 C7.0178125 8.09652344 6.285625 7.69304687 5.53125 7.27734375 C4.83515625 6.88675781 4.1390625 6.49617188 3.421875 6.09375 C2.78862305 5.73990234 2.15537109 5.38605469 1.50292969 5.02148438 C0 4 0 4 -1 2 C-0.67 1.34 -0.34 0.68 0 0 Z " fill="#FDE403" transform="translate(453,370)"/>
<path d="M0 0 C8.22104485 1.41742153 15.45299175 4.58613282 23 8 C23 8.99 23 9.98 23 11 C15.13620323 8.81659819 7.58324716 6.00714974 0 3 C0 2.01 0 1.02 0 0 Z " fill="#FDE502" transform="translate(465,345)"/>
<path d="M0 0 C3.56166706 0.38782263 6.63088031 1.55509745 9.90625 2.9609375 C10.81503906 3.35023438 11.72382813 3.73953125 12.66015625 4.140625 C13.59730469 4.54796875 14.53445312 4.9553125 15.5 5.375 C16.43714844 5.77460938 17.37429687 6.17421875 18.33984375 6.5859375 C22.7373953 8.48218668 26.98330363 10.36191552 31 13 C30.34 13.33 29.68 13.66 29 14 C26.17767998 12.83927965 23.4428897 11.61629443 20.6875 10.3125 C13.24275575 6.88221046 5.92979999 4.12955759 -2 2 C-1.34 1.34 -0.68 0.68 0 0 Z " fill="#DFDFDC" transform="translate(200,351)"/>
<path d="M0 0 C0.66 0.33 1.32 0.66 2 1 C0.83619119 2.40341651 -0.32889861 3.80578811 -1.5 5.203125 C-2.52907685 6.4358733 -3.54949854 7.6758832 -4.5625 8.921875 C-5.078125 9.54578125 -5.59375 10.1696875 -6.125 10.8125 C-6.84042969 11.68841797 -6.84042969 11.68841797 -7.5703125 12.58203125 C-9 14 -9 14 -12 15 C-11.58685438 10.55073948 -8.49538473 8.15899896 -5.4375 5.25 C-4.91736328 4.74339844 -4.39722656 4.23679687 -3.86132812 3.71484375 C-2.58089916 2.46965595 -1.29132446 1.23388498 0 0 Z " fill="#FCDC04" transform="translate(94,408)"/>
<path d="M0 0 C-0.33 0.99 -0.66 1.98 -1 3 C-2.36125 2.9071875 -2.36125 2.9071875 -3.75 2.8125 C-7.38674822 3.0223124 -8.42832403 3.51700251 -11 6 C-12.04115841 7.30144802 -13.05377841 8.62797869 -14 10 C-14.4375 7.875 -14.4375 7.875 -14 5 C-9.96158033 -0.24033029 -6.56559154 -1.8758833 0 0 Z " fill="#FCDD04" transform="translate(412,430)"/>
<path d="M0 0 C0.66 0.33 1.32 0.66 2 1 C0.65429346 5.03711961 -1.86666514 5.89392969 -5.4375 7.75 C-6.03626953 8.07871094 -6.63503906 8.40742188 -7.25195312 8.74609375 C-8.79942162 9.5674824 -10.39767365 10.29155922 -12 11 C-12.66 10.67 -13.32 10.34 -14 10 C-9.38 6.7 -4.76 3.4 0 0 Z " fill="#64655B" transform="translate(287,372)"/>
<path d="M0 0 C4.09842405 1.40883327 7.45591603 3.49038357 11.03515625 5.87890625 C13.02910935 7.01660911 14.7583525 7.55566453 17 8 C16 10 16 10 15 12 C11.25120362 10.75040121 9.79032462 8.79032462 7 6 C5.7455112 5.06108946 4.47423139 4.14421333 3.1875 3.25 C2.135625 2.5075 1.08375 1.765 0 1 C0 0.67 0 0.34 0 0 Z " fill="#D0CFCC" transform="translate(241,371)"/>
<path d="M0 0 C0.66 0.33 1.32 0.66 2 1 C0.54144353 4.68646141 -1.30229045 6.16143971 -4.625 8.25 C-5.44226563 8.77078125 -6.25953125 9.2915625 -7.1015625 9.828125 C-8.04128906 10.40820312 -8.04128906 10.40820312 -9 11 C-9.66 10.67 -10.32 10.34 -11 10 C-5.555 5.05 -5.555 5.05 0 0 Z " fill="#5B5D52" transform="translate(285,368)"/>
<path d="M0 0 C0.66 0 1.32 0 2 0 C2 0.66 2 1.32 2 2 C4.31 2.33 6.62 2.66 9 3 C9 3.99 9 4.98 9 6 C3.58461538 6.36923077 3.58461538 6.36923077 0.625 4.5 C0.08875 4.005 -0.4475 3.51 -1 3 C-0.67 2.01 -0.34 1.02 0 0 Z " fill="#FAD508" transform="translate(315,493)"/>
<path d="M0 0 C0.33 0 0.66 0 1 0 C1 6.27 1 12.54 1 19 C0.67 19 0.34 19 0 19 C-0.33 16.03 -0.66 13.06 -1 10 C-1.99 10.495 -1.99 10.495 -3 11 C-2.01 7.37 -1.02 3.74 0 0 Z " fill="#7B7B72" transform="translate(258,183)"/>
<path d="M0 0 C0.66 0.33 1.32 0.66 2 1 C-0.77762123 4.60062011 -3.73991357 7.83047153 -7 11 C-7 7.22089522 -6.00296038 6.53893899 -3.5 3.8125 C-2.8503125 3.09707031 -2.200625 2.38164062 -1.53125 1.64453125 C-1.0259375 1.10183594 -0.520625 0.55914062 0 0 Z " fill="#EEEDEC" transform="translate(286,363)"/>
<path d="M0 0 C1.98 0.66 3.96 1.32 6 2 C6 2.33 6 2.66 6 3 C5.05125 3.12375 4.1025 3.2475 3.125 3.375 C-0.08667191 3.71687177 -0.08667191 3.71687177 -2 6 C-2.99 6.33 -3.98 6.66 -5 7 C-3.70700306 4.11562221 -2.34058637 2.12780579 0 0 Z " fill="#F9CF09" transform="translate(367,454)"/>
<path d="M0 0 C0.66 0.33 1.32 0.66 2 1 C0.41641358 4.16717283 -0.45263699 5.73268318 -3.6875 7.3125 C-4.450625 7.539375 -5.21375 7.76625 -6 8 C-4.55746343 4.63408134 -2.66735273 2.48952921 0 0 Z " fill="#FBD805" transform="translate(429,405)"/>
<path d="M0 0 C3.3 0 6.6 0 10 0 C10 0.99 10 1.98 10 3 C8.35 3 6.7 3 5 3 C5 2.67 5 2.34 5 2 C3.35 1.67 1.7 1.34 0 1 C0 0.67 0 0.34 0 0 Z " fill="#F9CB0B" transform="translate(274,491)"/>
<path d="M0 0 C0.33 0.66 0.66 1.32 1 2 C-1.31 2.33 -3.62 2.66 -6 3 C-6 2.01 -6 1.02 -6 0 C-3 -1 -3 -1 0 0 Z " fill="#DBDAD7" transform="translate(335,350)"/>
<path d="M0 0 C1.32 0.99 2.64 1.98 4 3 C3.67 3.99 3.34 4.98 3 6 C1.35 4.35 -0.3 2.7 -2 1 C-1.34 0.67 -0.68 0.34 0 0 Z " fill="#FDDF03" transform="translate(293,497)"/>
<path d="M0 0 C0.99 0 1.98 0 3 0 C2.67 1.98 2.34 3.96 2 6 C1.01 6 0.02 6 -1 6 C-0.67 4.02 -0.34 2.04 0 0 Z " fill="#FCDB05" transform="translate(200,491)"/>
</svg>
